Coordinates
version=1
nRows=22
nColumns=24
inDegrees=yes

Units are S.I. units (second, meters, Newtons, ...)
Angles are in degrees.

endheader
time	pelvis_tilt	pelvis_list	pelvis_rotation	pelvis_tx	pelvis_ty	pelvis_tz	hip_flexion_r	hip_adduction_r	hip_rotation_r	knee_angle_r	ankle_angle_r	subtalar_angle_r	mtp_angle_r	hip_flexion_l	hip_adduction_l	hip_rotation_l	knee_angle_l	ankle_angle_l	subtalar_angle_l	mtp_angle_l	lumbar_extension	lumbar_bending	lumbar_rotation
      3.35000000	    -10.57273192	      4.49404530	     -3.09424456	     -2.07445913	     -0.01005954	     -0.66263147	     23.16222918	     -6.92799894	     -2.57079673	    -66.20520587	    -19.81660303	    -16.93257006	      1.59967291	     22.46360992	      6.73405113	    -13.08358676	    -18.23357290	      2.24821741	    -10.05831777	      2.13807054	      7.36767011	     -4.55966223	     -0.66024567
      3.35500000	    -10.61494584	      4.36996513	     -2.89522489	     -2.06935506	     -0.00943533	     -0.66343522	     23.97612301	     -6.77174983	     -2.60704292	    -66.73019013	    -18.84758208	    -17.07711525	      1.78817157	     21.99230525	      6.77416627	    -12.86793225	    -17.92872479	      2.46339538	     -9.90866414	      2.28834504	      7.33563690	     -4.43500036	     -0.96522615
      3.36000000	    -10.68766158	      4.26247636	     -2.73417647	     -2.06427451	     -0.00885378	     -0.66421803	     24.82601804	     -6.61297179	     -2.57837142	    -67.19322446	    -17.80804218	    -17.06455035	      2.00283918	     21.55128567	      6.81619411	    -12.67829421	    -17.60913125	      2.62359479	     -9.81561509	      2.41490355	      7.34608345	     -4.31334189	     -1.18664087
      3.36500000	    -10.70990004	      4.17943698	     -2.55451918	     -2.05915916	     -0.00823251	     -0.66502646	     25.60239905	     -6.50506193	     -2.59504900	    -67.57307458	    -16.85254877	    -17.12847266	      2.19724627	     21.03607182	      6.89315665	    -12.49152003	    -17.25631510	      2.81484407	     -9.67094370	      2.50445175	      7.31027975	     -4.22159343	     -1.45025649
      3.37000000	    -10.73378796	      4.08640308	     -2.37367342	     -2.05403459	     -0.00760583	     -0.66582086	     26.35349433	     -6.38116351	     -2.60215987	    -67.86345115	    -15.88353769	    -17.11629264	      2.38240747	     20.51844233	      6.95469268	    -12.31061493	    -16.89650120	      2.97833317	     -9.52602661	      2.58543480	      7.28012799	     -4.11958569	     -1.69305590
      3.37500000	    -10.73868281	      4.00332972	     -2.19480253	     -2.04888928	     -0.00696167	     -0.66660280	     27.06436634	     -6.27211583	     -2.62082625	    -68.06917896	    -14.97166153	    -17.13672678	      2.52341615	     19.96712776	      7.02419137	    -12.14286110	    -16.51127253	      3.12433460	     -9.37548524	      2.66357468	      7.23768721	     -4.02663163	     -1.92403142
      3.38000000	    -10.72139997	      3.92915494	     -2.01696922	     -2.04372273	     -0.00632778	     -0.66739648	     27.73467611	     -6.18516585	     -2.66095128	    -68.19908697	    -14.12841076	    -17.19455903	      2.62425745	     19.38130345	      7.10329195	    -11.97704434	    -16.10856421	      3.28687891	     -9.21984283	      2.74847104	      7.18001414	     -3.94052886	     -2.14930477
      3.38500000	    -10.68719224	      3.85595562	     -1.83118294	     -2.03853027	     -0.00567747	     -0.66818354	     28.35616173	     -6.10482139	     -2.71342216	    -68.23858751	    -13.32089953	    -17.25634200	      2.68578565	     18.76797411	      7.18136872	    -11.81464903	    -15.69152489	      3.42791727	     -9.04775881	      2.84102747	      7.10688499	     -3.85696909	     -2.37715139
      3.39000000	    -10.62944530	      3.78327127	     -1.63953161	     -2.03331034	     -0.00501756	     -0.66896129	     28.92322700	     -6.03215103	     -2.78459927	    -68.19183838	    -12.55879814	    -17.34283001	      2.70230270	     18.11943703	      7.25879986	    -11.65228544	    -15.25879637	      3.55872914	     -8.86698409	      2.94910902	      7.01958799	     -3.77770012	     -2.60672376
      3.39500000	    -10.53650839	      3.69491416	     -1.43935664	     -2.02805450	     -0.00429909	     -0.66973214	     29.40889478	     -5.94784649	     -2.87600085	    -68.03864236	    -11.83055338	    -17.44612296	      2.64514341	     17.42113258	      7.31729356	    -11.49337335	    -14.80771533	      3.65333390	     -8.67416598	      3.09199001	      6.89817970	     -3.68308267	     -2.84874360
      3.40000000	    -10.41433880	      3.59427990	     -1.25046919	     -2.02275162	     -0.00357909	     -0.67049987	     29.83600390	     -5.85659326	     -2.99083890	    -67.80037564	    -11.16831993	    -17.60002313	      2.49575479	     16.67368129	      7.35951169	    -11.32333675	    -14.33016865	      3.76485892	     -8.49324286	      3.30473264	      6.75597176	     -3.56939005	     -3.06075503
      3.40500000	    -10.31812048	      3.50902988	     -1.04437798	     -2.01747983	     -0.00293191	     -0.67125565	     30.27167754	     -5.79028610	     -3.12180152	    -67.48977298	    -10.53819120	    -17.80475283	      2.39121853	     15.96631019	      7.41212854	    -11.16544164	    -13.86996159	      3.86759971	     -8.29253830	      3.49409889	      6.63745835	     -3.47769268	     -3.29394801
      3.41000000	    -10.23086414	      3.43451934	     -0.83526479	     -2.01223478	     -0.00233557	     -0.67199365	     30.69468141	     -5.74234940	     -3.26606168	    -67.09768849	     -9.92931189	    -18.04798209	      2.33837954	     15.27388408	      7.47005459	    -11.00307882	    -13.41796763	      3.97187055	     -8.08096677	      3.63678375	      6.52533615	     -3.40248940	     -3.53338011
      3.41500000	    -10.11049890	      3.32411226	     -0.61716538	     -2.00693826	     -0.00170058	     -0.67275290	     31.03297062	     -5.66560305	     -3.43487804	    -66.59793866	     -9.35284446	    -18.28335185	      2.26578370	     14.53414563	      7.48954471	    -10.82447384	    -12.95367684	      4.08324542	     -7.86591588	      3.79108881	      6.38596251	     -3.27883067	     -3.77260342
      3.42000000	     -9.97132451	      3.20726422	     -0.43202065	     -2.00163383	     -0.00107504	     -0.67345714	     31.32670888	     -5.56751005	     -3.59146886	    -66.01188826	     -8.79919105	    -18.53902556	      2.12673199	     13.76507385	      7.48825455	    -10.66156881	    -12.47115294	      4.18923044	     -7.66176123	      3.99899389	      6.23144570	     -3.14522479	     -3.96258747
      3.42500000	     -9.91262521	      3.12613782	     -0.18951563	     -1.99639427	     -0.00062282	     -0.67421612	     31.69442903	     -5.55042209	     -3.79586792	    -65.37670176	     -8.24373714	    -18.78290936	      2.08595421	     13.11015971	      7.53020728	    -10.48553879	    -12.02981696	      4.31118399	     -7.42996158	      4.11121496	      6.15406378	     -3.06249345	     -4.22560408
      3.43000000	     -9.80263198	      2.99781728	      0.03464900	     -1.99113277	     -0.00009173	     -0.67496439	     31.95470554	     -5.47462850	     -4.00465900	    -64.61725293	     -7.72093307	    -19.02957608	      1.99938463	     12.39414547	      7.51236429	    -10.30493955	    -11.58339138	      4.42016102	     -7.19853428	      4.22538105	      6.02660735	     -2.91383256	     -4.46937515
      3.43500000	     -9.70093157	      2.88725858	      0.24716913	     -1.98587937	      0.00036567	     -0.67569959	     32.20977157	     -5.42224765	     -4.21529230	    -63.79575340	     -7.22413325	    -19.26841928	      1.86134837	     11.68507214	      7.50683841	    -10.15177564	    -11.12630622	      4.53660481	     -6.96910563	      4.35046764	      5.91047545	     -2.78293252	     -4.69681964
      3.44000000	     -9.64362022	      2.78516811	      0.48593813	     -1.98070178	      0.00070670	     -0.67642492	     32.48965085	     -5.39209738	     -4.44289146	    -62.90474861	     -6.71636675	    -19.49819486	      1.73548669	     11.05379159	      7.50466651	     -9.97606561	    -10.71859291	      4.65999884	     -6.73132854	      4.45172622	      5.82918358	     -2.66856526	     -4.94349072
      3.44500000	     -9.57763687	      2.67996393	      0.71941875	     -1.97551512	      0.00101496	     -0.67715293	     32.73090707	     -5.36566477	     -4.68418642	    -61.93287334	     -6.25151976	    -19.71878823	      1.55467026	     10.41134995	      7.49368355	     -9.81171208	    -10.30676706	      4.78965294	     -6.49071352	      4.55008893	      5.74285265	     -2.54433549	     -5.18710857
      3.45000000	     -9.52946351	      2.58612234	      0.95548456	     -1.97034300	      0.00124244	     -0.67788462	     32.96843454	     -5.35905348	     -4.93235999	    -60.89270691	     -5.81354112	    -19.92470382	      1.32956538	      9.79723857	      7.48977852	     -9.65197380	     -9.90976513	      4.92595461	     -6.24447934	      4.64694097	      5.67627573	     -2.42850353	     -5.42758142
      3.45500000	     -9.50588500	      2.50229820	      1.19225072	     -1.96519563	      0.00136492	     -0.67858088	     33.21458422	     -5.37010534	     -5.19576511	    -59.79207908	     -5.41275972	    -20.11890193	      1.08349227	      9.21664631	      7.48971690	     -9.48075206	     -9.52316375	      5.08652151	     -6.00075514	      4.74173815	      5.63165912	     -2.33171483	     -5.65742372
